<svg width="16" height="16" viewBox="0 0 16 16" fill="none" xmlns="http://www.w3.org/2000/svg">
<rect width="16" height="16" rx="4" fill="#6B9CFF"/>
<path d="M8.04 12.07C7.57333 12.07 7.15333 11.99 6.78 11.83C6.40667 11.6633 6.11333 11.43 5.9 11.13C5.68667 10.83 5.58 10.48 5.58 10.08H6.8C6.82667 10.38 6.94333 10.6267 7.15 10.82C7.36333 11.0133 7.66 11.11 8.04 11.11C8.43333 11.11 8.74 11.0167 8.96 10.83C9.18 10.6367 9.29 10.39 9.29 10.09C9.29 9.85667 9.22 9.66667 9.08 9.52C8.94667 9.37333 8.77667 9.26 8.57 9.18C8.37 9.1 8.09 9.01333 7.73 8.92C7.27667 8.8 6.90667 8.68 6.62 8.56C6.34 8.43333 6.1 8.24 5.9 7.98C5.7 7.72 5.6 7.37333 5.6 6.94C5.6 6.54 5.7 6.19 5.9 5.89C6.1 5.59 6.38 5.36 6.74 5.2C7.1 5.04 7.51667 4.96 7.99 4.96C8.66333 4.96 9.21333 5.13 9.64 5.47C10.0733 5.80333 10.3133 6.26333 10.36 6.85H9.1C9.08 6.59667 8.96 6.38 8.74 6.2C8.52 6.02 8.23 5.93 7.87 5.93C7.54333 5.93 7.27667 6.01333 7.07 6.18C6.86333 6.34667 6.76 6.58667 6.76 6.9C6.76 7.11333 6.82333 7.29 6.95 7.43C7.08333 7.56333 7.25 7.67 7.45 7.75C7.65 7.83 7.92333 7.91667 8.27 8.01C8.73 8.13667 9.10333 8.26333 9.39 8.39C9.68333 8.51667 9.93 8.71333 10.13 8.98C10.3367 9.24 10.44 9.59 10.44 10.03C10.44 10.3833 10.3433 10.7167 10.15 11.03C9.96333 11.3433 9.68667 11.5967 9.32 11.79C8.96 11.9767 8.53333 12.07 8.04 12.07Z" fill="white"/>
</svg>
